:SAMPLES-PER-SECOND 24
:FULLY-SPECIFIED
:DEGREES
250
root  -16.9453 39.9537 -33.8996 14.5519 14.4384 -2.44632
RightUpLeg  -4.97184 -5.067 -4.29597
RightLeg  0.283997 -16.7104 0.658398
RightFoot  -7.92674 -0.276858 7.45335
RightToes  -2.09809e-008 3.77894e-005 6.81332e-007
Spine  -8.5548 4.27559 14.8769
Spine1  6.68656 5.31305 -10.7719
HEad  -28.1984 45.8935 -33.0073
LeftShoulder1  6.89797 -12.6254 -36.7074
LeftArm  11.2194 20.0766 -31.7655
LeftForeArm  173.078 -63.1841 -160.817
LeftHand  -0.194353 -2.79602 2.97804
RightShoulder  3.51161 6.25693 30.0667
RightArm  16.9482 -22.2008 38.3588
RightForeArm  160.188 73.0217 146.98
RightHand  -0.377176 10.0749 -3.22973
LeftUpLeg  -29.508 22.367 0.293622
LeftLeg  25.5907 8.31273 4.6499
LeftFoot  -9.53726 0.246637 -11.8563
LeftToes  1.24773e-006 1.46318e-008 1.32523e-009
251
root  -16.5412 39.7872 -33.557 15.1855 19.4595 -2.56987
RightUpLeg  -4.34589 -5.57548 -4.20663
RightLeg  0.962425 -20.736 1.24745
RightFoot  -9.0522 -0.235574 8.68978
RightToes  -2.09809e-008 3.77894e-005 6.81332e-007
Spine  -9.20185 5.40166 15.9447
Spine1  6.25357 6.46513 -12.0947
HEad  -33.132 51.1666 -37.1522
LeftShoulder1  7.14081 -12.8876 -37.4786
LeftArm  11.0213 19.3965 -32.4763
LeftForeArm  174.481 -62.7262 -161.312
LeftHand  -0.186003 -3.14793 2.76771
RightShoulder  3.56001 6.34018 30.2572
RightArm  17.7424 -22.8552 38.3418
RightForeArm  157.653 74.1187 144.241
RightHand  -0.309858 10.2259 -2.70644
LeftUpLeg  -33.1129 26.104 -5.22432
LeftLeg  24.3339 10.0207 5.24445
LeftFoot  -8.08847 0.293096 -8.60867
LeftToes  1.24773e-006 1.46318e-008 1.32523e-009
252
root  -16.0151 39.5501 -33.1842 14.7408 24.5525 -2.79953
RightUpLeg  -3.59056 -6.15791 -4.04465
RightLeg  4.08992 -25.5033 0.80201
RightFoot  -10.6573 -0.12239 7.91996
RightToes  -2.09809e-008 3.77894e-005 6.81332e-007
Spine  -8.354 6.07097 15.9835
Spine1  5.1696 7.28401 -12.7915
HEad  -36.6802 54.0268 -38.6862
LeftShoulder1  7.07155 -12.8378 -37.1972
LeftArm  10.5108 20.0858 -34.9761
LeftForeArm  175.55 -63.3127 -160.96
LeftHand  -0.129313 -3.52504 1.93614
RightShoulder  3.64194 6.46671 30.6254
RightArm  18.8866 -23.9884 37.7536
RightForeArm  157.445 74.3819 143.596
RightHand  -0.414996 10.3351 -3.46464
LeftUpLeg  -33.702 24.9307 -7.86496
LeftLeg  23.7641 14.7106 7.30697
LeftFoot  -7.71839 0.123631 -2.26185
LeftToes  1.24773e-006 1.46318e-008 1.32523e-009
253
root  -15.3882 39.1934 -32.7399 13.9192 29.8349 -2.37675
RightUpLeg  -3.09159 -11.2119 -4.36362
RightLeg  10.0674 -25.5912 -1.88882
RightFoot  -13.2176 0.0867424 9.8544
RightToes  -2.09809e-008 3.77894e-005 6.81332e-007
Spine  -7.67248 6.35027 13.5425
Spine1  4.95027 7.61045 -11.5358
HEad  -38.9653 54.4818 -38.1485
LeftShoulder1  6.97791 -12.7543 -36.8564
LeftArm  9.69632 20.5741 -36.6722
LeftForeArm  174.655 -64.3037 -160.063
LeftHand  -0.0879673 -3.68005 1.38154
RightShoulder  3.65185 6.49345 30.6263
RightArm  19.6274 -24.6152 37.3845
RightForeArm  158.253 74.4725 143.53
RightHand  -0.51161 10.1968 -4.20691
LeftUpLeg  -31.9506 18.227 -7.03981
LeftLeg  25.6071 19.3066 10.1311
LeftFoot  -9.64525 0.0473225 0.545459
LeftToes  1.24773e-006 1.46318e-008 1.32523e-009
254
root  -14.7192 38.8261 -32.2292 13.2573 35.621 -1.11639
RightUpLeg  -5.09059 -20.5546 -4.94404
RightLeg  22.0067 -20.312 -8.4024
RightFoot  -14.9914 0.42982 16.6631
RightToes  -2.09809e-008 3.77894e-005 6.81332e-007
Spine  -7.63432 6.31863 9.53363
Spine1  5.96914 7.43874 -8.56419
HEad  -40.0781 53.3453 -36.3174
LeftShoulder1  7.22063 -13.0156 -37.6166
LeftArm  9.34627 18.859 -35.2061
LeftForeArm  170.81 -65.4838 -158.602
LeftHand  -0.138523 -3.31084 2.09145
RightShoulder  3.64965 6.49954 30.582
RightArm  18.9937 -24.132 37.6006
RightForeArm  156.222 75.1981 141.33
RightHand  -0.522396 10.0171 -4.32905
LeftUpLeg  -30.0895 11.7415 -6.36448
LeftLeg  28.522 19.0381 11.1891
LeftFoot  -11.8893 0.0685106 -0.224469
LeftToes  1.24773e-006 1.46318e-008 1.32523e-009
255
root  -14.0363 38.6313 -31.6909 12.1861 41.5081 -0.215378
RightUpLeg  -9.72368 -21.853 -5.65573
RightLeg  39.8362 -20.9621 -17.9658
RightFoot  -9.63487 -0.312658 16.4648
RightToes  -2.09809e-008 3.77894e-005 6.81332e-007
Spine  -6.40907 6.08107 7.71038
Spine1  6.14459 7.33307 -7.45196
HEad  -39.0442 52.2414 -33.0754
LeftShoulder1  7.46387 -13.2709 -38.3725
LeftArm  9.91535 15.8002 -32.2815
LeftForeArm  167.693 -67.1074 -156.618
LeftHand  -0.235305 -2.5117 3.66858
RightShoulder  3.76179 6.62872 31.2309
RightArm  18.1664 -23.289 37.8677
RightForeArm  152.642 76.2405 137.613
RightHand  -0.521459 9.92397 -4.34473
LeftUpLeg  -27.8102 8.8593 -6.40453
LeftLeg  29.9432 16.0681 10.1086
LeftFoot  -13.3774 0.0808895 0.0378495
LeftToes  1.24773e-006 1.46318e-008 1.32523e-009
256
root  -13.3582 38.5731 -31.1212 10.452 47.1636 -0.330048
RightUpLeg  -15.2122 -21.44 -5.76895
RightLeg  54.9619 -16.5597 -23.8061
RightFoot  0.166112 -0.655819 6.38412
RightToes  -2.09809e-008 3.77894e-005 6.81332e-007
Spine  -5.84935 5.91831 6.91584
Spine1  7.39544 7.22573 -6.42045
HEad  -36.735 51.6776 -30.1231
LeftShoulder1  7.51913 -13.3341 -38.5255
LeftArm  10.3482 13.003 -30.3613
LeftForeArm  167.317 -68.3371 -155.184
LeftHand  -0.286198 -2.1909 4.57866
RightShoulder  3.73216 6.61164 30.9981
RightArm  17.5249 -22.3328 38.6108
RightForeArm  151.03 76.8527 135.239
RightHand  -0.477172 9.90782 -4.01421
LeftUpLeg  -24.9723 6.59249 -5.69099
LeftLeg  30.4117 13.9105 9.00282
LeftFoot  -15.0083 0.0997762 0.341926
LeftToes  1.24773e-006 1.46318e-008 1.32523e-009
257
root  -12.6825 38.6457 -30.4596 7.87004 52.9285 -1.88159
RightUpLeg  -19.2051 -20.4166 -5.09585
RightLeg  62.7817 -9.41631 -19.5168
RightFoot  2.98576 -0.112126 0.876751
RightToes  -2.09809e-008 3.77894e-005 6.81332e-007
Spine  -4.58502 5.44483 6.79299
Spine1  6.92808 6.62194 -5.48191
HEad  -33.7769 52.2105 -27.0012
LeftShoulder1  7.16015 -12.9897 -37.3284
LeftArm  10.6283 12.9913 -30.0622
LeftForeArm  168.43 -67.5144 -156.254
LeftHand  -0.292562 -2.47917 4.5291
RightShoulder  3.72943 6.57858 31.0933
RightArm  17.221 -22.7505 38.0252
RightForeArm  154.168 76.1461 138.213
RightHand  -0.38776 10.2226 -3.28523
LeftUpLeg  -22.0053 3.01068 -3.66513
LeftLeg  30.3063 12.3129 8.00498
LeftFoot  -16.2944 0.0646507 -0.755712
LeftToes  1.24773e-006 1.46318e-008 1.32523e-009
258
root  -12.0195 38.9321 -29.6596 4.64018 58.4457 -4.59235
RightUpLeg  -22.0241 -18.9752 -4.08239
RightLeg  65.2598 -5.11297 -12.5957
RightFoot  0.326768 -0.35439 3.5783
RightToes  -2.09809e-008 3.77894e-005 6.81332e-007
Spine  -4.84539 5.19157 5.77039
Spine1  7.77683 5.84401 -2.87377
HEad  -31.7456 53.0118 -25.1834
LeftShoulder1  6.96049 -12.8115 -36.6053
LeftArm  11.0471 13.7856 -30.2771
LeftForeArm  169.211 -65.6397 -158.276
LeftHand  -0.274078 -2.42307 4.28059
RightShoulder  3.70121 6.52589 31.0059
RightArm  17.1215 -23.9083 36.7953
RightForeArm  157.315 74.9187 142.255
RightHand  -0.382581 10.5137 -3.19651
LeftUpLeg  -18.8837 -0.295969 -1.07693
LeftLeg  28.6398 10.3237 6.38528
LeftFoot  -16.1983 0.01897 -1.83599
LeftToes  1.24773e-006 1.46318e-008 1.32523e-009
